<?xml version="1.0" encoding="UTF-8"?>
<svg width="43px" height="32px" viewBox="0 0 43 32" version="1.1" xmlns="http://www.w3.org/2000/svg" xmlns:xlink="http://www.w3.org/1999/xlink">
    <!-- Generator: Sketch 50.2 (55047) - http://www.bohemiancoding.com/sketch -->
    <title>rock</title>
    <desc>Created with Sketch.</desc>
    <defs></defs>
    <g id="Page-1" stroke="none" stroke-width="1" fill="none" fill-rule="evenodd">
        <g id="2476" transform="translate(-51.000000, -149.000000)">
            <g id="rock" transform="translate(51.000000, 149.000000)">
                <path d="M41.694,26.009 C41.389,25.023 40.999,24.064 40.666,23.089 C40.049,21.287 39.229,19.568 38.572,17.782 C38.231,16.854 37.906,15.92 37.563,14.992 C37.234,14.102 36.915,13.16 36.397,12.36 C35.947,11.664 35.15,11.229 34.487,10.764 C33.698,10.21 32.874,9.71 32.021,9.263 C31.428,8.952 30.864,8.615 30.244,8.355 C29.645,8.104 29.079,7.864 28.54,7.491 C28.092,7.181 27.692,6.679 27.432,6.201 C27.284,5.931 26.926,5.677 26.712,5.454 C26.456,5.187 26.189,4.936 25.95,4.653 C25.12,3.667 24.19,2.642 23.157,1.867 C22.703,1.526 22.225,1.29 21.73,1.098 C21.3,0.852 20.841,0.637 20.402,0.512 C18.772,0.047 17.265,1.051 15.898,1.818 C12.636,3.652 9.698,6.092 6.9,8.552 C6.226,9.144 5.595,9.801 5.054,10.518 C4.517,11.233 4.259,12.082 3.965,12.913 C3.29,14.818 2.678,16.741 2.153,18.694 C1.629,20.646 1.216,22.622 0.838,24.607 C0.697,25.352 0.528,26.18 0.509,26.936 C0.494,27.522 1.002,28.03 1.45,28.327 C2.041,28.718 2.689,28.984 3.295,29.361 C4.134,29.883 5.103,30.235 6.023,30.582 C7.535,31.152 9.198,31.697 10.844,31.835 L10.857,31.868 L11.006,31.848 C11.251,31.865 11.495,31.872 11.738,31.868 C12.713,31.854 13.685,31.71 14.654,31.612 C15.708,31.506 16.777,31.523 17.835,31.472 C18.784,31.425 19.734,31.425 20.683,31.439 C20.787,31.441 20.889,31.441 20.991,31.441 C21.267,31.44 21.539,31.44 21.819,31.473 C21.983,31.493 22.101,31.505 22.211,31.442 C22.611,31.621 23.079,31.698 23.483,31.653 C23.675,31.632 23.864,31.64 24.054,31.649 C24.27,31.659 24.487,31.668 24.707,31.634 C25.203,31.555 25.69,31.421 26.177,31.304 C28.081,30.846 30.1,30.945 32.039,30.883 C33.001,30.852 34.008,30.746 34.954,30.57 C35.944,30.386 36.946,30.299 37.933,30.08 C38.728,29.903 39.584,29.687 40.307,29.307 C40.775,29.061 41.831,28.795 42.023,28.23 C42.259,27.538 41.898,26.668 41.694,26.009" id="Fill-1375" fill="#0A0B09"></path>
                <path d="M41.371,28.316 C41.209,28.463 41.023,28.575 40.825,28.664 C40.644,27.789 39.632,27.048 39.053,26.457 C38.623,26.018 38.21,25.541 37.736,25.15 C37.246,24.745 36.871,24.213 36.372,23.826 L36.351,23.848 C36.764,24.222 37.08,24.717 37.462,25.123 C37.888,25.575 38.29,26.034 38.673,26.523 C39.082,27.046 39.51,27.564 39.871,28.119 C40.021,28.349 40.151,28.642 40.354,28.831 C40.155,28.887 39.953,28.929 39.755,28.968 C39.356,29.043 38.955,29.093 38.553,29.143 C37.015,29.626 35.349,29.883 33.779,30.024 C32.789,30.113 31.796,30.16 30.803,30.203 C28.989,30.474 27.179,30.773 25.383,31.149 C24.833,31.264 24.299,31.363 23.736,31.352 C23.188,31.342 22.645,31.28 22.101,31.226 C20.919,31.11 19.723,31.104 18.537,31.105 C17.497,31.106 16.458,31.131 15.421,31.197 C14.399,31.262 13.386,31.398 12.365,31.473 C11.912,31.506 11.463,31.514 11.016,31.488 C10.968,30.826 10.714,30.141 10.568,29.509 C10.365,28.633 10.259,27.736 10.075,26.857 L10.026,26.875 C10.145,27.699 10.216,28.526 10.321,29.351 C10.404,30.011 10.494,30.795 10.707,31.464 C10.323,31.427 9.94,31.361 9.56,31.259 C8.587,30.997 7.638,30.657 6.711,30.265 C5.936,29.936 5.191,29.546 4.419,29.209 C3.874,28.972 3.313,28.76 2.783,28.486 C2.434,28.306 2.086,28.094 1.797,27.835 C1.426,27.669 1.082,27.463 0.826,27.126 C0.623,26.859 0.882,26.098 0.929,25.776 C1.007,25.24 1.087,24.708 1.219,24.182 C1.475,23.161 1.742,22.147 2.025,21.133 C2.571,19.177 3.211,17.242 3.794,15.297 C4.071,14.373 4.364,13.456 4.629,12.529 C4.772,12.031 4.905,11.557 5.161,11.101 C5.435,10.614 5.843,10.187 6.215,9.773 C7.505,8.337 9.087,7.16 10.599,5.974 C12.598,4.406 14.633,2.889 16.85,1.636 C18.182,0.883 19.374,0.297 20.881,0.97 C21.247,1.132 21.608,1.318 21.961,1.515 L22.024,1.559 C22.362,1.815 22.718,2.011 23.033,2.303 C23.388,2.631 23.695,3.015 24.015,3.378 C25.159,4.675 26.325,5.956 27.411,7.292 C27.925,7.924 28.566,8.108 29.233,8.529 C29.569,8.74 30.027,8.82 30.394,8.974 C30.869,9.176 31.319,9.443 31.763,9.704 C33.357,10.641 35.47,11.556 36.222,13.359 L36.313,13.587 C36.789,14.292 37.131,15.099 37.452,15.879 C37.83,16.798 38.167,17.732 38.479,18.675 C38.771,19.556 39.018,20.451 39.32,21.33 C39.98,23.248 40.788,25.111 41.536,26.997 L41.491,27.089 C41.651,27.525 41.768,27.959 41.371,28.316" id="Fill-1376" fill="#776D61"></path>
                <path d="M17.441,27.104 C16.838,23.47 15.748,19.992 14.45,16.552 C14.108,15.646 13.751,14.747 13.383,13.852 C13.037,13.013 12.546,12.082 12.369,11.192 C12.279,10.74 12.639,10.043 12.788,9.619 C12.945,9.167 13.132,8.726 13.319,8.287 C13.495,7.872 13.686,7.466 13.887,7.063 C14.349,6.433 14.746,5.756 15.249,5.152 C15.898,4.376 16.376,3.46 17.151,2.792 L17.139,2.776 C16.331,3.375 15.708,4.221 15.106,5.018 C14.952,5.223 14.804,5.426 14.659,5.628 L14.691,5.572 L14.654,5.555 C14.454,5.857 14.266,6.161 14.083,6.468 C13.887,6.766 13.695,7.071 13.506,7.389 L13.523,7.462 C12.974,8.5 12.51,9.574 12.101,10.705 C12.021,10.927 12.014,11.144 12.048,11.358 C11.616,11.719 11.239,12.21 10.832,12.595 C10.27,13.127 9.72,13.685 9.168,14.23 C7.974,15.409 7.018,16.755 6.082,18.139 C5.16,19.504 4.455,20.955 3.827,22.475 C3.503,23.26 3.236,24.063 3.013,24.882 C2.86,25.439 2.617,26.2 2.766,26.772 L2.782,26.766 C2.681,26.054 3.081,25.124 3.312,24.46 C3.587,23.664 3.924,22.889 4.276,22.124 C4.928,20.709 5.684,19.385 6.57,18.104 C7.498,16.765 8.496,15.493 9.574,14.269 C10.034,13.748 10.532,13.267 10.989,12.742 C11.345,12.333 11.782,12.006 12.092,11.566 C12.186,11.907 12.362,12.239 12.5,12.565 C12.892,13.498 13.256,14.448 13.63,15.389 C14.391,17.303 15.138,19.228 15.716,21.207 C16.294,23.183 16.771,25.172 17.274,27.169 C17.302,27.279 17.456,27.199 17.441,27.104" id="Fill-1377" fill="#0A0B09"></path>
                <path d="M36.814,18.939 C35.47,17.953 34.001,17.09 32.457,16.458 C31.672,16.137 30.876,15.829 30.083,15.528 C29.547,15.324 29.069,14.979 28.557,14.729 L28.513,14.633 C27.568,12.7 26.466,10.847 25.473,8.939 C24.431,6.938 23.401,4.938 22.47,2.883 L22.424,2.901 C22.769,3.818 23.2,4.679 23.488,5.618 C23.789,6.595 24.271,7.545 24.716,8.464 C25.192,9.446 25.605,10.459 26.074,11.445 C26.558,12.461 27.14,13.435 27.607,14.459 C28.029,15.383 28.394,16.21 28.611,17.206 C28.846,18.284 29.103,19.357 29.352,20.431 C29.873,22.678 30.2,24.946 30.508,27.229 L30.617,27.213 C30.349,25.104 30.107,22.99 29.711,20.901 C29.485,19.711 29.306,18.514 29.194,17.308 C29.119,16.508 28.981,15.759 28.687,15.028 C29.005,15.267 29.318,15.519 29.673,15.702 C30.421,16.085 31.199,16.416 31.975,16.736 C33.604,17.41 35.074,18.385 36.646,19.17 C36.767,19.229 36.937,19.03 36.814,18.939" id="Fill-1378" fill="#0A0B09"></path>
                <path d="M11.016,31.488 C11.014,31.46 11.012,31.432 11.009,31.404 C11.012,31.432 11.014,31.46 11.016,31.488" id="Fill-1379" fill="#554C42"></path>
                <path d="M16.904,1.605 C16.909,1.602 16.914,1.599 16.919,1.596 C16.914,1.599 16.909,1.602 16.904,1.605 M16.936,1.587 C17.823,1.088 18.652,0.675 19.559,0.674 C18.652,0.675 17.823,1.088 16.936,1.587 M20.881,0.97 C20.877,0.968 20.872,0.966 20.868,0.964 C20.872,0.966 20.877,0.968 20.881,0.97 M19.564,0.674 L19.563,0.674 L19.564,0.674" id="Fill-1380" fill="#0A0B09"></path>
                <path d="M10.707,31.464 C10.323,31.427 9.94,31.361 9.56,31.259 C8.587,30.997 7.638,30.657 6.711,30.265 C5.936,29.936 5.191,29.546 4.419,29.209 C3.874,28.972 3.313,28.76 2.783,28.486 C2.434,28.306 2.086,28.094 1.797,27.835 C1.426,27.669 1.082,27.463 0.826,27.126 C0.771,27.053 0.749,26.943 0.749,26.815 C0.749,26.476 0.895,26.01 0.929,25.776 C1.007,25.24 1.087,24.708 1.219,24.182 C1.475,23.161 1.742,22.147 2.025,21.133 C2.571,19.177 3.211,17.242 3.794,15.297 C4.071,14.373 4.364,13.456 4.629,12.529 C4.772,12.031 4.905,11.557 5.161,11.101 C5.435,10.614 5.843,10.187 6.215,9.773 C7.505,8.337 9.087,7.16 10.599,5.974 C12.598,4.406 14.633,2.889 16.85,1.636 C16.868,1.625 16.886,1.615 16.904,1.605 C16.909,1.602 16.914,1.599 16.919,1.596 C16.925,1.593 16.931,1.59 16.936,1.587 C17.823,1.088 18.652,0.675 19.559,0.674 C19.56,0.674 19.561,0.674 19.563,0.674 L19.564,0.674 C19.978,0.674 20.408,0.761 20.868,0.964 C20.872,0.966 20.877,0.968 20.881,0.97 C21.247,1.132 21.608,1.318 21.961,1.515 L22.024,1.559 C22.362,1.815 22.718,2.011 23.033,2.303 C23.388,2.631 23.695,3.015 24.015,3.378 C25.159,4.675 26.325,5.956 27.411,7.292 C27.925,7.924 28.566,8.108 29.233,8.529 C29.569,8.74 30.027,8.82 30.394,8.974 C30.869,9.176 31.319,9.443 31.763,9.704 C33.357,10.641 35.47,11.556 36.222,13.359 L36.313,13.587 C36.789,14.292 37.131,15.099 37.452,15.879 C37.83,16.798 38.167,17.732 38.479,18.675 C38.771,19.556 39.018,20.451 39.32,21.33 C39.98,23.248 40.788,25.111 41.536,26.997 C40.788,25.111 39.98,23.248 39.32,21.33 C39.018,20.451 38.771,19.556 38.479,18.675 C38.167,17.732 37.83,16.798 37.452,15.879 C37.131,15.099 36.789,14.292 36.313,13.587 L36.222,13.359 C35.47,11.556 33.357,10.641 31.763,9.704 C31.319,9.443 30.869,9.176 30.394,8.974 C30.027,8.82 29.569,8.74 29.233,8.529 C28.566,8.108 27.925,7.924 27.411,7.292 C26.325,5.956 25.159,4.675 24.015,3.378 C23.695,3.015 23.388,2.631 23.033,2.303 C22.718,2.011 22.362,1.815 22.024,1.559 L21.961,1.515 C21.608,1.318 21.247,1.132 20.881,0.97 C20.417,0.763 19.983,0.675 19.566,0.675 C19.093,0.675 18.642,0.787 18.192,0.965 L18.123,1.065 C18.047,1.187 18.003,1.32 17.94,1.448 C17.804,1.727 17.583,1.971 17.401,2.223 C17.295,2.371 17.188,2.519 17.096,2.677 C17.05,2.754 17.017,2.835 16.969,2.907 C16.242,3.495 15.665,4.278 15.106,5.018 C14.952,5.223 14.804,5.426 14.659,5.628 L14.691,5.572 L14.654,5.555 C14.454,5.857 14.266,6.161 14.083,6.468 C13.887,6.766 13.695,7.071 13.506,7.389 L13.523,7.462 C12.974,8.5 12.51,9.574 12.101,10.705 C12.021,10.927 12.014,11.144 12.048,11.358 C11.616,11.719 11.239,12.21 10.832,12.595 C10.27,13.127 9.72,13.685 9.168,14.23 C7.974,15.409 7.018,16.755 6.082,18.139 C5.16,19.504 4.455,20.955 3.827,22.475 C3.503,23.26 3.236,24.063 3.013,24.882 C2.86,25.439 2.617,26.2 2.766,26.772 L2.782,26.766 C2.681,26.054 3.081,25.124 3.312,24.46 C3.587,23.664 3.924,22.889 4.276,22.124 C4.928,20.709 5.684,19.385 6.57,18.104 C7.498,16.765 8.496,15.493 9.574,14.269 C10.034,13.748 10.532,13.267 10.989,12.742 C11.345,12.333 11.782,12.006 12.092,11.566 C12.186,11.907 12.362,12.239 12.5,12.565 C12.892,13.498 13.256,14.448 13.63,15.389 C14.391,17.303 15.138,19.228 15.716,21.207 C16.288,23.165 16.762,25.135 17.26,27.113 C17.302,27.496 17.327,27.88 17.327,28.264 C17.327,28.629 17.398,29.07 17.229,29.401 C17.141,29.574 17.023,29.66 16.885,29.754 C16.533,29.994 15.922,30.168 15.496,30.304 C14.949,30.479 14.43,30.445 13.859,30.52 C13.397,30.582 12.941,30.778 12.494,30.832 C12.218,30.865 11.933,30.874 11.646,30.874 C11.403,30.874 11.16,30.868 10.921,30.864 C10.82,30.404 10.669,29.944 10.568,29.509 C10.365,28.633 10.259,27.736 10.075,26.857 L10.026,26.875 C10.145,27.699 10.216,28.526 10.321,29.351 C10.404,30.011 10.494,30.795 10.707,31.464 M11.017,13.406 C10.318,13.406 9.574,14.458 9.278,14.931 C8.689,15.875 7.973,16.9 7.201,17.689 C6.396,18.514 5.957,19.642 5.309,20.585 C4.684,21.495 4.359,22.36 4.048,23.387 C3.745,24.392 2.526,25.663 3.286,26.756 C3.694,27.343 4.353,27.598 4.996,27.826 C5.714,28.082 6.345,28.459 7.007,28.83 C7.463,29.086 8.031,29.373 8.535,29.373 C8.906,29.373 9.243,29.217 9.474,28.777 C9.896,27.975 9.584,27 9.824,26.156 C10.102,26.571 10.25,27.147 10.521,27.519 C10.703,27.771 10.908,27.868 11.121,27.868 C11.536,27.868 11.976,27.496 12.319,27.165 C12.555,26.937 12.677,26.598 12.918,26.342 C13.353,25.881 13.957,25.491 14.346,25.006 C15.615,23.423 14.117,20.117 13.299,18.726 C12.725,17.749 12.65,16.352 12.302,15.279 C12.13,14.751 11.941,14.035 11.529,13.632 C11.366,13.472 11.193,13.406 11.017,13.406 M15.681,2.581 C15.47,2.581 15.026,2.826 14.442,3.249 C12.253,4.838 9.849,6.361 7.784,8.473 C5.719,10.584 5.774,10.216 4.954,12.723 C3.366,17.58 2.518,20.914 2.993,20.914 C3.101,20.914 3.278,20.741 3.53,20.374 C4.892,18.394 7.119,14.806 8.418,13.507 C9.717,12.208 10.985,11.774 11.079,11.125 C11.171,10.475 11.141,9.547 11.635,8.947 C12.13,8.347 13.244,6.33 14.853,4.288 C15.801,3.085 15.982,2.581 15.681,2.581" id="Fill-1381" fill="#554C42"></path>
                <path d="M17.26,27.113 C16.762,25.135 16.288,23.165 15.716,21.207 C15.138,19.228 14.391,17.303 13.63,15.389 C13.256,14.448 12.892,13.498 12.5,12.565 C12.362,12.239 12.186,11.907 12.092,11.566 C11.782,12.006 11.345,12.333 10.989,12.742 C10.532,13.267 10.034,13.748 9.574,14.269 C8.496,15.493 7.498,16.765 6.57,18.104 C5.684,19.385 4.928,20.709 4.276,22.124 C3.924,22.889 3.587,23.664 3.312,24.46 C3.081,25.124 2.681,26.054 2.782,26.766 L2.766,26.772 C2.617,26.2 2.86,25.439 3.013,24.882 C3.236,24.063 3.503,23.26 3.827,22.475 C4.455,20.955 5.16,19.504 6.082,18.139 C7.018,16.755 7.974,15.409 9.168,14.23 C9.72,13.685 10.27,13.127 10.832,12.595 C11.239,12.21 11.616,11.719 12.048,11.358 C12.014,11.144 12.021,10.927 12.101,10.705 C12.51,9.574 12.974,8.5 13.523,7.462 L13.506,7.389 C13.695,7.071 13.887,6.766 14.083,6.468 C14.266,6.161 14.454,5.857 14.654,5.555 L14.691,5.572 L14.659,5.628 C14.804,5.426 14.952,5.223 15.106,5.018 C15.665,4.278 16.242,3.495 16.969,2.907 C16.94,2.951 16.906,2.992 16.861,3.026 C16.719,3.133 16.594,3.266 16.494,3.414 C16.382,3.579 16.281,3.763 16.135,3.903 C16.031,4.005 15.888,4.127 15.823,4.26 L15.763,4.407 L15.622,4.59 C15.519,4.708 15.391,4.795 15.288,4.914 C15.154,5.071 15.022,5.227 14.911,5.402 L14.818,5.601 C14.748,5.744 14.617,5.815 14.529,5.943 C14.459,6.045 14.389,6.142 14.302,6.232 C14.204,6.333 14.141,6.453 14.07,6.574 C13.913,6.844 13.768,7.125 13.647,7.414 C13.597,7.532 13.564,7.664 13.496,7.774 C13.409,7.913 13.352,8.065 13.273,8.208 L13.173,8.409 C13.122,8.536 13.07,8.666 13.014,8.792 L12.95,8.97 L12.91,9.15 C12.856,9.264 12.791,9.37 12.743,9.489 C12.683,9.64 12.612,9.77 12.531,9.913 C12.47,10.018 12.409,10.121 12.382,10.24 C12.335,10.449 12.354,10.666 12.309,10.875 C12.283,10.997 12.248,11.119 12.246,11.243 C12.244,11.372 12.28,11.489 12.297,11.616 C12.323,11.814 12.342,12.059 12.415,12.246 C12.528,12.532 12.705,12.765 12.863,13.021 C13.042,13.312 13.111,13.673 13.253,13.982 C13.379,14.257 13.5,14.537 13.608,14.818 C13.724,15.117 13.808,15.419 13.943,15.711 C14.077,16.001 14.018,16.36 14.166,16.638 C14.32,16.93 14.562,17.201 14.734,17.487 C14.922,17.798 15.049,18.221 15.147,18.568 C15.253,18.949 15.331,19.338 15.437,19.716 C15.498,19.929 15.543,20.154 15.614,20.366 C15.663,20.512 15.746,20.641 15.785,20.792 C15.823,20.934 15.826,21.082 15.861,21.226 C15.938,21.544 16.086,21.839 16.171,22.153 C16.251,22.449 16.354,22.738 16.447,23.03 C16.531,23.295 16.545,23.549 16.627,23.806 C16.696,24.025 16.752,24.257 16.798,24.483 C16.975,25.347 17.163,26.227 17.26,27.113" id="Fill-1382" fill="#0A0B09"></path>
                <path d="M11.009,31.404 C11.002,31.332 10.992,31.261 10.981,31.188 L10.974,31.148 C10.958,31.053 10.94,30.958 10.919,30.864 C10.92,30.864 10.92,30.864 10.921,30.864 C10.96,31.044 10.991,31.225 11.009,31.404" id="Fill-1383" fill="#0A0B09"></path>
                <path d="M24.703,29.194 C24.662,29.194 24.618,29.188 24.568,29.175 C23.535,28.901 23.172,27.24 22.662,26.469 C22.134,25.67 21.851,25.338 20.854,25.12 C20.041,24.941 18.977,24.946 18.255,24.461 C17.674,24.071 17.83,23.509 17.675,22.901 C17.466,22.082 16.946,21.358 16.721,20.529 C16.28,18.914 15.719,17.34 15.16,15.759 C15.016,15.349 14.894,14.94 14.713,14.529 C14.411,13.841 14.401,12.979 14.018,12.361 C13.654,11.775 13.298,11.65 13.306,10.864 C13.313,10.094 13.715,9.378 13.933,8.653 C14.163,7.892 14.361,7.106 14.749,6.407 C15.307,5.4 16.191,4.587 16.834,3.636 C17.279,2.975 17.955,1.786 18.677,1.786 C18.946,1.786 19.22,1.95 19.491,2.366 C20.105,3.307 20.649,4.206 21.126,5.223 C21.473,5.963 21.834,6.724 22.227,7.439 C22.646,8.204 22.677,8.921 23.047,9.719 C23.806,11.353 24.4,13.001 25.23,14.582 C25.916,15.888 25.573,16.799 25.556,18.18 C25.536,19.811 25.622,21.621 25.816,23.236 C25.94,24.279 26.077,25.148 25.817,26.157 C25.645,26.826 25.54,27.414 25.294,28.066 C25.129,28.506 25.136,29.194 24.703,29.194" id="Fill-1384" fill="#4C433B"></path>
                <path d="M11.555,31.503 C11.555,31.503 11.554,31.503 11.553,31.503 C11.397,31.503 11.241,31.499 11.086,31.492 C11.081,31.492 11.075,31.491 11.07,31.491 C11.061,31.491 11.053,31.49 11.044,31.49 C11.035,31.489 11.025,31.489 11.016,31.488 C11.014,31.46 11.012,31.432 11.009,31.404 C10.991,31.225 10.96,31.044 10.921,30.864 C11.16,30.868 11.403,30.874 11.646,30.874 C11.933,30.874 12.218,30.865 12.494,30.832 C12.941,30.778 13.397,30.582 13.859,30.52 C14.43,30.445 14.949,30.479 15.496,30.304 C15.922,30.168 16.533,29.994 16.885,29.754 C17.023,29.66 17.141,29.574 17.229,29.401 C17.398,29.07 17.327,28.629 17.327,28.264 C17.327,27.88 17.302,27.496 17.26,27.113 C17.265,27.132 17.269,27.15 17.274,27.169 C17.284,27.207 17.308,27.222 17.336,27.222 C17.388,27.222 17.451,27.166 17.441,27.104 C16.838,23.47 15.748,19.992 14.45,16.552 C14.108,15.646 13.751,14.747 13.383,13.852 C13.037,13.013 12.546,12.082 12.369,11.192 C12.279,10.74 12.639,10.043 12.788,9.619 C12.945,9.167 13.132,8.726 13.319,8.287 C13.495,7.872 13.686,7.466 13.887,7.063 C14.349,6.433 14.746,5.756 15.249,5.152 C15.898,4.376 16.376,3.46 17.151,2.792 L17.139,2.776 C17.081,2.819 17.025,2.862 16.969,2.907 C17.017,2.835 17.05,2.754 17.096,2.677 C17.188,2.519 17.295,2.371 17.401,2.223 C17.583,1.971 17.804,1.727 17.94,1.448 C18.003,1.32 18.047,1.187 18.123,1.065 L18.192,0.965 C18.642,0.787 19.093,0.675 19.566,0.675 C19.983,0.675 20.417,0.763 20.881,0.97 C21.247,1.132 21.608,1.318 21.961,1.515 L22.024,1.559 C22.362,1.815 22.718,2.011 23.033,2.303 C23.388,2.631 23.695,3.015 24.015,3.378 C25.159,4.675 26.325,5.956 27.411,7.292 C27.925,7.924 28.566,8.108 29.233,8.529 C29.569,8.74 30.027,8.82 30.394,8.974 C30.869,9.176 31.319,9.443 31.763,9.704 C33.357,10.641 35.47,11.556 36.222,13.359 L36.313,13.587 C36.789,14.292 37.131,15.099 37.452,15.879 C37.83,16.798 38.167,17.732 38.479,18.675 C38.771,19.556 39.018,20.451 39.32,21.33 C39.98,23.248 40.788,25.111 41.536,26.997 C40.788,25.111 39.98,23.248 39.32,21.33 C39.018,20.451 38.771,19.556 38.479,18.675 C38.167,17.732 37.83,16.798 37.452,15.879 C37.131,15.099 36.789,14.292 36.313,13.587 L36.222,13.359 C35.47,11.556 33.357,10.641 31.763,9.704 C31.319,9.443 30.869,9.176 30.394,8.974 C30.027,8.82 29.569,8.74 29.233,8.529 C28.566,8.108 27.925,7.924 27.411,7.292 C26.325,5.956 25.159,4.675 24.015,3.378 C23.702,3.023 23.399,2.647 23.053,2.322 C22.88,2.236 22.732,2.185 22.621,2.185 C22.396,2.185 22.323,2.395 22.5,2.949 C22.49,2.927 22.48,2.905 22.47,2.883 L22.424,2.901 C22.769,3.818 23.2,4.679 23.488,5.618 C23.789,6.595 24.271,7.545 24.716,8.464 C25.192,9.446 25.605,10.459 26.074,11.445 C26.558,12.461 27.14,13.435 27.607,14.459 C28.029,15.383 28.394,16.21 28.611,17.206 C28.846,18.284 29.103,19.357 29.352,20.431 C29.873,22.678 30.2,24.946 30.508,27.229 L30.569,27.22 C30.593,27.343 30.625,27.464 30.646,27.588 C30.682,27.808 30.716,28.033 30.738,28.255 C30.782,28.697 30.947,29.143 30.86,29.583 L30.839,29.851 C30.905,29.992 31.11,29.989 31.227,30.051 L31.348,30.159 L31.383,30.177 C31.189,30.186 30.996,30.195 30.803,30.203 C28.989,30.474 27.179,30.773 25.383,31.149 C25.352,31.156 25.322,31.162 25.291,31.168 C24.802,31.269 24.324,31.353 23.824,31.353 C23.823,31.353 23.822,31.353 23.82,31.353 C23.792,31.353 23.764,31.353 23.736,31.352 C23.188,31.342 22.645,31.28 22.101,31.226 C22.085,31.225 22.07,31.223 22.055,31.222 C22.05,31.222 22.046,31.221 22.041,31.221 C22.027,31.219 22.013,31.218 21.999,31.217 C21.997,31.217 21.996,31.216 21.994,31.216 C20.91,31.116 19.814,31.105 18.724,31.105 C18.693,31.105 18.662,31.105 18.631,31.105 C18.599,31.105 18.568,31.105 18.537,31.105 C17.497,31.106 16.458,31.131 15.421,31.197 C14.399,31.262 13.386,31.398 12.365,31.473 C12.095,31.492 11.826,31.503 11.558,31.503 C11.557,31.503 11.556,31.503 11.555,31.503 M18.677,1.786 C17.955,1.786 17.279,2.975 16.834,3.636 C16.191,4.587 15.307,5.4 14.749,6.407 C14.361,7.106 14.163,7.892 13.933,8.653 C13.715,9.378 13.313,10.094 13.306,10.864 C13.298,11.65 13.654,11.775 14.018,12.361 C14.401,12.979 14.411,13.841 14.713,14.529 C14.894,14.94 15.016,15.349 15.16,15.759 C15.719,17.34 16.28,18.914 16.721,20.529 C16.946,21.358 17.466,22.082 17.675,22.901 C17.83,23.509 17.674,24.071 18.255,24.461 C18.977,24.946 20.041,24.941 20.854,25.12 C21.851,25.338 22.134,25.67 22.662,26.469 C23.172,27.24 23.535,28.901 24.568,29.175 C24.618,29.188 24.662,29.194 24.703,29.194 C25.136,29.194 25.129,28.506 25.294,28.066 C25.54,27.414 25.645,26.826 25.817,26.157 C26.077,25.148 25.94,24.279 25.816,23.236 C25.622,21.621 25.536,19.811 25.556,18.18 C25.573,16.799 25.916,15.888 25.23,14.582 C24.4,13.001 23.806,11.353 23.047,9.719 C22.677,8.921 22.646,8.204 22.227,7.439 C21.834,6.724 21.473,5.963 21.126,5.223 C20.649,4.206 20.105,3.307 19.491,2.366 C19.22,1.95 18.946,1.786 18.677,1.786" id="Fill-1386" fill="#37302A"></path>
                <path d="M17.336,27.222 C17.308,27.222 17.284,27.207 17.274,27.169 C17.269,27.15 17.265,27.132 17.26,27.113 C17.163,26.227 16.975,25.347 16.798,24.483 C16.752,24.257 16.696,24.025 16.627,23.806 C16.545,23.549 16.531,23.295 16.447,23.03 C16.354,22.738 16.251,22.449 16.171,22.153 C16.086,21.839 15.938,21.544 15.861,21.226 C15.826,21.082 15.823,20.934 15.785,20.792 C15.746,20.641 15.663,20.512 15.614,20.366 C15.543,20.154 15.498,19.929 15.437,19.716 C15.331,19.338 15.253,18.949 15.147,18.568 C15.049,18.221 14.922,17.798 14.734,17.487 C14.562,17.201 14.32,16.93 14.166,16.638 C14.018,16.36 14.077,16.001 13.943,15.711 C13.808,15.419 13.724,15.117 13.608,14.818 C13.5,14.537 13.379,14.257 13.253,13.982 C13.111,13.673 13.042,13.312 12.863,13.021 C12.705,12.765 12.528,12.532 12.415,12.246 C12.342,12.059 12.323,11.814 12.297,11.616 C12.28,11.489 12.244,11.372 12.246,11.243 C12.248,11.119 12.283,10.997 12.309,10.875 C12.354,10.666 12.335,10.449 12.382,10.24 C12.409,10.121 12.47,10.018 12.531,9.913 C12.612,9.77 12.683,9.64 12.743,9.489 C12.791,9.37 12.856,9.264 12.91,9.15 L12.95,8.97 L13.014,8.792 C13.07,8.666 13.122,8.536 13.173,8.409 L13.273,8.208 C13.352,8.065 13.409,7.913 13.496,7.774 C13.564,7.664 13.597,7.532 13.647,7.414 C13.768,7.125 13.913,6.844 14.07,6.574 C14.141,6.453 14.204,6.333 14.302,6.232 C14.389,6.142 14.459,6.045 14.529,5.943 C14.617,5.815 14.748,5.744 14.818,5.601 L14.911,5.402 C15.022,5.227 15.154,5.071 15.288,4.914 C15.391,4.795 15.519,4.708 15.622,4.59 L15.763,4.407 L15.823,4.26 C15.888,4.127 16.031,4.005 16.135,3.903 C16.281,3.763 16.382,3.579 16.494,3.414 C16.594,3.266 16.719,3.133 16.861,3.026 C16.906,2.992 16.94,2.951 16.969,2.907 C17.025,2.862 17.081,2.819 17.139,2.776 L17.151,2.792 C16.376,3.46 15.898,4.376 15.249,5.152 C14.746,5.756 14.349,6.433 13.887,7.063 C13.686,7.466 13.495,7.872 13.319,8.287 C13.132,8.726 12.945,9.167 12.788,9.619 C12.639,10.043 12.279,10.74 12.369,11.192 C12.546,12.082 13.037,13.013 13.383,13.852 C13.751,14.747 14.108,15.646 14.45,16.552 C15.748,19.992 16.838,23.47 17.441,27.104 C17.451,27.166 17.388,27.222 17.336,27.222" id="Fill-1387" fill="#0A0B09"></path>
                <path d="M30.508,27.229 C30.2,24.946 29.873,22.678 29.352,20.431 C29.103,19.357 28.846,18.284 28.611,17.206 C28.394,16.21 28.029,15.383 27.607,14.459 C27.14,13.435 26.558,12.461 26.074,11.445 C25.605,10.459 25.192,9.446 24.716,8.464 C24.271,7.545 23.789,6.595 23.488,5.618 C23.2,4.679 22.769,3.818 22.424,2.901 L22.47,2.883 C22.48,2.905 22.49,2.927 22.5,2.949 C22.606,3.282 22.803,3.74 23.112,4.35 C24.504,7.103 25.71,10.042 27.35,12.95 C28.989,15.857 28.742,16.214 29.129,18.58 C29.359,19.988 29.635,21.389 29.889,22.793 C30.142,24.195 30.429,25.615 30.543,27.037 C30.548,27.099 30.558,27.16 30.569,27.22 L30.508,27.229" id="Fill-1388" fill="#0A0B09"></path>
                <path d="M32.586,28.996 C32.317,28.996 32.196,28.761 32.105,28.501 C32.016,28.251 31.901,28.007 31.807,27.768 C31.698,27.498 31.512,27.347 31.374,27.088 C31.293,26.935 31.24,26.707 31.198,26.538 C30.977,25.659 30.857,24.679 30.849,23.772 C30.842,23.048 30.74,22.357 30.602,21.645 C30.519,21.217 30.38,20.805 30.324,20.374 C30.27,19.962 30.209,19.549 30.154,19.138 C30.084,18.593 30.097,17.984 29.92,17.463 C29.821,17.171 29.25,16.224 29.894,16.137 C29.905,16.135 29.917,16.134 29.929,16.134 C30.183,16.134 30.547,16.474 30.739,16.591 C31.297,16.929 31.8,17.31 32.403,17.568 C33.007,17.828 33.629,18.041 34.232,18.301 C35.069,18.661 35.865,19.063 36.548,19.669 C37.048,20.111 37.648,20.344 38.207,20.674 C38.481,20.837 39.016,21.144 39.126,21.412 C39.213,21.627 39.136,21.543 38.994,21.597 C38.758,21.687 38.48,21.687 38.233,21.735 C38.085,21.764 37.905,21.807 37.77,21.876 C37.643,21.939 37.602,22.093 37.51,22.133 C37.495,22.139 37.471,22.142 37.44,22.142 C37.278,22.142 36.937,22.066 36.824,22.061 C36.47,22.044 36.176,21.921 35.843,21.805 C35.164,21.572 34.489,20.832 33.743,20.832 C33.715,20.832 33.688,20.833 33.661,20.835 C33.58,21.207 34.223,21.887 34.401,22.179 C34.642,22.571 34.835,22.954 35.125,23.305 C35.504,23.764 35.709,24.317 35.997,24.827 C36.152,25.103 36.348,25.372 36.485,25.659 C36.563,25.822 36.605,26.021 36.711,26.172 C37.056,26.655 38.127,27.225 37.973,27.952 C37.899,28.303 37.396,28.418 37.073,28.482 C36.949,28.506 36.824,28.515 36.699,28.515 C36.397,28.515 36.092,28.465 35.788,28.465 C35.199,28.465 34.759,28.589 34.19,28.691 C33.865,28.75 33.525,28.713 33.203,28.77 C33.029,28.803 32.895,28.932 32.732,28.975 C32.679,28.989 32.631,28.996 32.586,28.996" id="Fill-1392" fill="#2B2621"></path>
                <path d="M37.956,18.536 C37.724,18.536 37.479,18.371 37.331,18.218 C36.929,17.803 36.719,17.239 36.261,16.886 C35.834,16.556 35.293,16.399 34.815,16.16 C33.657,15.582 32.444,15.169 31.382,14.423 C30.897,14.082 30.335,13.846 29.953,13.382 C29.178,12.439 28.626,11.345 27.938,10.343 C27.291,9.398 26.439,8.605 25.837,7.63 C25.774,7.528 25.766,7.394 25.714,7.288 C25.593,7.041 25.417,6.785 25.279,6.552 C25.119,6.283 25.075,5.989 24.962,5.706 C24.915,5.591 24.534,4.833 24.815,4.833 C24.828,4.833 24.841,4.835 24.856,4.838 C24.991,4.864 25.218,5.135 25.328,5.223 C25.503,5.368 25.664,5.488 25.755,5.698 C25.853,5.922 25.974,6.125 26.101,6.335 C26.338,6.728 26.602,7.092 26.869,7.467 C27.047,7.717 27.32,7.882 27.591,8.013 C27.926,8.176 28.242,8.331 28.57,8.51 C29.096,8.794 29.608,9.076 30.157,9.32 C30.455,9.453 30.741,9.556 31.021,9.72 C31.214,9.834 31.403,9.949 31.611,10.035 C32.124,10.249 32.656,10.408 33.156,10.646 C33.413,10.769 33.651,10.928 33.885,11.089 C34.106,11.241 34.347,11.469 34.605,11.549 C34.82,11.615 34.924,11.632 35.047,11.847 C35.145,12.021 35.192,12.229 35.325,12.381 C35.425,12.493 35.483,12.493 35.533,12.652 C35.581,12.803 35.626,12.931 35.69,13.072 C35.793,13.298 35.817,13.554 35.914,13.785 C36.013,14.023 36.112,14.266 36.214,14.502 C36.297,14.692 36.371,14.888 36.498,15.056 C36.607,15.202 36.739,15.319 36.842,15.47 C37.11,15.862 37.351,16.303 37.561,16.729 C37.715,17.044 37.72,17.377 37.802,17.709 C37.87,17.983 38.03,18.247 38.023,18.531 C38,18.534 37.978,18.536 37.956,18.536" id="Fill-1393" fill="#2B2621"></path>
                <path d="M31.383,30.177 L31.348,30.159 L31.227,30.051 C31.11,29.989 30.905,29.992 30.839,29.851 L30.86,29.583 C30.947,29.143 30.782,28.697 30.738,28.255 C30.716,28.033 30.682,27.808 30.646,27.588 C30.625,27.464 30.593,27.343 30.569,27.22 L30.617,27.213 C30.349,25.104 30.107,22.99 29.711,20.901 C29.485,19.711 29.306,18.514 29.194,17.308 C29.119,16.508 28.981,15.759 28.687,15.028 C29.005,15.267 29.318,15.519 29.673,15.702 C30.421,16.085 31.199,16.416 31.975,16.736 C33.604,17.41 35.074,18.385 36.646,19.17 C36.662,19.177 36.678,19.181 36.694,19.181 C36.805,19.181 36.921,19.019 36.814,18.939 C35.47,17.953 34.001,17.09 32.457,16.458 C31.672,16.137 30.876,15.829 30.083,15.528 C29.547,15.324 29.069,14.979 28.557,14.729 L28.513,14.633 C27.568,12.7 26.466,10.847 25.473,8.939 C24.442,6.96 23.423,4.982 22.5,2.949 C22.323,2.395 22.396,2.185 22.621,2.185 C22.732,2.185 22.88,2.236 23.053,2.322 C23.399,2.647 23.702,3.023 24.015,3.378 C25.159,4.675 26.325,5.956 27.411,7.292 C27.925,7.924 28.566,8.108 29.233,8.529 C29.569,8.74 30.027,8.82 30.394,8.974 C30.869,9.176 31.319,9.443 31.763,9.704 C33.357,10.641 35.47,11.556 36.222,13.359 L36.313,13.587 C36.789,14.292 37.131,15.099 37.452,15.879 C37.83,16.798 38.167,17.732 38.479,18.675 C38.771,19.556 39.018,20.451 39.32,21.33 C39.98,23.248 40.788,25.111 41.536,26.997 L41.491,27.089 C41.571,27.307 41.64,27.525 41.64,27.732 C41.64,27.94 41.57,28.138 41.371,28.316 C41.209,28.463 41.023,28.575 40.825,28.664 C40.644,27.789 39.632,27.048 39.053,26.457 C38.623,26.018 38.21,25.541 37.736,25.15 C37.246,24.745 36.871,24.213 36.372,23.826 L36.351,23.848 C36.764,24.222 37.08,24.717 37.462,25.123 C37.888,25.575 38.29,26.034 38.673,26.523 C39.082,27.046 39.51,27.564 39.871,28.119 C40.021,28.349 40.151,28.642 40.354,28.831 C40.155,28.887 39.953,28.929 39.755,28.968 C39.356,29.043 38.955,29.093 38.553,29.143 C37.015,29.626 35.349,29.883 33.779,30.024 C33.457,30.053 33.135,30.078 32.813,30.099 C32.81,30.099 32.807,30.099 32.804,30.099 C32.803,30.1 32.803,30.1 32.803,30.1 C32.33,30.131 31.856,30.155 31.383,30.177 M29.929,16.134 C29.917,16.134 29.905,16.135 29.894,16.137 C29.25,16.224 29.821,17.171 29.92,17.463 C30.097,17.984 30.084,18.593 30.154,19.138 C30.209,19.549 30.27,19.962 30.324,20.374 C30.38,20.805 30.519,21.217 30.602,21.645 C30.74,22.357 30.842,23.048 30.849,23.772 C30.857,24.679 30.977,25.659 31.198,26.538 C31.24,26.707 31.293,26.935 31.374,27.088 C31.512,27.347 31.698,27.498 31.807,27.768 C31.901,28.007 32.016,28.251 32.105,28.501 C32.196,28.761 32.317,28.996 32.586,28.996 C32.631,28.996 32.679,28.989 32.732,28.975 C32.895,28.932 33.029,28.803 33.203,28.77 C33.525,28.713 33.865,28.75 34.19,28.691 C34.759,28.589 35.199,28.465 35.788,28.465 C36.092,28.465 36.397,28.515 36.699,28.515 C36.824,28.515 36.949,28.506 37.073,28.482 C37.396,28.418 37.899,28.303 37.973,27.952 C38.127,27.225 37.056,26.655 36.711,26.172 C36.605,26.021 36.563,25.822 36.485,25.659 C36.348,25.372 36.152,25.103 35.997,24.827 C35.709,24.317 35.504,23.764 35.125,23.305 C34.835,22.954 34.642,22.571 34.401,22.179 C34.223,21.887 33.58,21.207 33.661,20.835 C33.688,20.833 33.715,20.832 33.743,20.832 C34.489,20.832 35.164,21.572 35.843,21.805 C36.176,21.921 36.47,22.044 36.824,22.061 C36.937,22.066 37.278,22.142 37.44,22.142 C37.471,22.142 37.495,22.139 37.51,22.133 C37.602,22.093 37.643,21.939 37.77,21.876 C37.905,21.807 38.085,21.764 38.233,21.735 C38.48,21.687 38.758,21.687 38.994,21.597 C39.136,21.543 39.213,21.627 39.126,21.412 C39.016,21.144 38.481,20.837 38.207,20.674 C37.648,20.344 37.048,20.111 36.548,19.669 C35.865,19.063 35.069,18.661 34.232,18.301 C33.629,18.041 33.007,17.828 32.403,17.568 C31.8,17.31 31.297,16.929 30.739,16.591 C30.547,16.474 30.183,16.134 29.929,16.134 M24.815,4.833 C24.534,4.833 24.915,5.591 24.962,5.706 C25.075,5.989 25.119,6.283 25.279,6.552 C25.417,6.785 25.593,7.041 25.714,7.288 C25.766,7.394 25.774,7.528 25.837,7.63 C26.439,8.605 27.291,9.398 27.938,10.343 C28.626,11.345 29.178,12.439 29.953,13.382 C30.335,13.846 30.897,14.082 31.382,14.423 C32.444,15.169 33.657,15.582 34.815,16.16 C35.293,16.399 35.834,16.556 36.261,16.886 C36.719,17.239 36.929,17.803 37.331,18.218 C37.479,18.371 37.724,18.536 37.956,18.536 C37.978,18.536 38,18.534 38.023,18.531 C38.03,18.247 37.87,17.983 37.802,17.709 C37.72,17.377 37.715,17.044 37.561,16.729 C37.351,16.303 37.11,15.862 36.842,15.47 C36.739,15.319 36.607,15.202 36.498,15.056 C36.371,14.888 36.297,14.692 36.214,14.502 C36.112,14.266 36.013,14.023 35.914,13.785 C35.817,13.554 35.793,13.298 35.69,13.072 C35.626,12.931 35.581,12.803 35.533,12.652 C35.483,12.493 35.425,12.493 35.325,12.381 C35.192,12.229 35.145,12.021 35.047,11.847 C34.924,11.632 34.82,11.615 34.605,11.549 C34.347,11.469 34.106,11.241 33.885,11.089 C33.651,10.928 33.413,10.769 33.156,10.646 C32.656,10.408 32.124,10.249 31.611,10.035 C31.403,9.949 31.214,9.834 31.021,9.72 C30.741,9.556 30.455,9.453 30.157,9.32 C29.608,9.076 29.096,8.794 28.57,8.51 C28.242,8.331 27.926,8.176 27.591,8.013 C27.32,7.882 27.047,7.717 26.869,7.467 C26.602,7.092 26.338,6.728 26.101,6.335 C25.974,6.125 25.853,5.922 25.755,5.698 C25.664,5.488 25.503,5.368 25.328,5.223 C25.218,5.135 24.991,4.864 24.856,4.838 C24.841,4.835 24.828,4.833 24.815,4.833" id="Fill-1394" fill="#1E1A16"></path>
                <path d="M30.569,27.22 C30.558,27.16 30.548,27.099 30.543,27.037 C30.429,25.615 30.142,24.195 29.889,22.793 C29.635,21.389 29.359,19.988 29.129,18.58 C28.742,16.214 28.989,15.857 27.35,12.95 C25.71,10.042 24.504,7.103 23.112,4.35 C22.803,3.74 22.606,3.282 22.5,2.949 C23.423,4.982 24.442,6.96 25.473,8.939 C26.466,10.847 27.568,12.7 28.513,14.633 L28.557,14.729 C29.069,14.979 29.547,15.324 30.083,15.528 C30.876,15.829 31.672,16.137 32.457,16.458 C34.001,17.09 35.47,17.953 36.814,18.939 C36.921,19.019 36.805,19.181 36.694,19.181 C36.678,19.181 36.662,19.177 36.646,19.17 C35.074,18.385 33.604,17.41 31.975,16.736 C31.199,16.416 30.421,16.085 29.673,15.702 C29.318,15.519 29.005,15.267 28.687,15.028 C28.981,15.759 29.119,16.508 29.194,17.308 C29.306,18.514 29.485,19.711 29.711,20.901 C30.107,22.99 30.349,25.104 30.617,27.213 L30.569,27.22" id="Fill-1395" fill="#0A0B09"></path>
            </g>
        </g>
    </g>
</svg>