<?xml version="1.0" encoding="UTF-8"?>
<svg width="278px" height="453px" viewBox="0 0 278 453" version="1.1" xmlns="http://www.w3.org/2000/svg" xmlns:xlink="http://www.w3.org/1999/xlink">
    <!-- Generator: Sketch 50.2 (55047) - http://www.bohemiancoding.com/sketch -->
    <title>scissors</title>
    <desc>Created with Sketch.</desc>
    <defs>
        <polygon id="path-1" points="0.089 0.291210138 375.38 0.291210138 375.38 113.680828 0.089 113.680828"></polygon>
        <polygon id="path-3" points="0.089 0.291210138 375.38 0.291210138 375.38 113.680828 0.089 113.680828"></polygon>
    </defs>
    <g id="Page-1" stroke="none" stroke-width="1" fill="none" fill-rule="evenodd">
        <g id="scissors" transform="translate(179.000000, 207.000000) rotate(-105.000000) translate(-179.000000, -207.000000) translate(-56.000000, 70.000000)">
            <path d="M5.839,79.472 C13.119,85.124 27.057,84.492 35.886,85.42 C56.271,87.547 76.613,89.267 96.99,91.68 C107.783,92.957 134.129,97.416 156.71,100.367 C167.621,101.799 177.653,102.876 184.617,103.075 C187.334,103.152 189.591,103.096 191.252,102.872 C200.726,101.601 207.672,97.376 215.179,92.598 C224.388,86.737 233.145,84.579 243.038,80.935 C250.342,78.233 250.883,68.582 246.611,62.209 C243.524,57.636 230.88,58.266 226.126,58.541 C216.56,59.091 207.011,59.77 197.316,59.945 C191.287,60.057 185.277,60.048 179.259,60.018 C164.879,59.944 150.533,59.748 136.094,60.726 C127.979,61.285 112.124,61.432 94.089,61.527 C94.081,61.519 94.081,61.519 94.081,61.519 C55.759,61.715 7.628,61.651 3.267,64.634 C-2.096,68.294 1.546,76.136 5.839,79.472" id="Fill-15" fill="#6C6F6D" fill-rule="nonzero"></path>
            <g id="Group-19" transform="translate(94.000000, 0.000000)">
                <g id="Fill-16-Clipped">
                    <mask id="mask-2" fill="white">
                        <use xlink:href="#path-1"></use>
                    </mask>
                    <g id="path-1"></g>
                    <path d="M0.089,61.527 C2.484,63.483 5.993,65.404 8.168,67.078 C15.404,72.66 23.65,76.8 31.505,81.448 C40.423,86.727 48.62,92.884 57.916,97.769 C59.526,98.618 61.115,99.503 62.71,100.367 C73.621,101.799 83.653,102.876 90.617,103.075 C93.169,101.197 95.708,98.649 98.58,95.565 C105.201,88.459 104.932,84.777 100.881,75.698 C97.182,67.406 91.849,63.532 85.259,60.018 C70.879,59.944 56.533,59.748 42.094,60.726 C33.979,61.285 18.124,61.432 0.089,61.527" id="Fill-16" fill="#5A5C5A" fill-rule="nonzero" mask="url(#mask-2)"></path>
                </g>
                <g id="Fill-18-Clipped">
                    <mask id="mask-4" fill="white">
                        <use xlink:href="#path-3"></use>
                    </mask>
                    <g id="path-1"></g>
                    <path d="M344.51,78.727 C339.5,83.016 334.08,84.597 327.37,84.536 C313.88,84.417 300.47,81.888 287.293,77.947 C275.327,74.376 263.129,74.398 260.298,59.072 C256.434,38.191 287.922,27.568 303.6,23.602 C321.06,19.194 355.68,27.172 357.19,49.89 C357.94,61.16 352.76,71.698 344.51,78.727 Z M131.547,59.666 C131.812,60.876 132.208,62.17 132.483,63.501 C133.736,69.745 133.819,77.626 137.749,82.954 C142.669,89.63 148.756,87.244 155.896,87.653 C162.807,88.053 169.707,88.288 176.614,88.459 C183.943,88.643 191.269,88.742 198.604,88.905 C210.794,89.155 222.244,92.693 234.861,92.149 C247.293,91.609 260.452,93.285 272.956,95.074 C276.997,95.656 283.837,96.085 287.257,98.551 C290.821,101.128 289.699,103.036 294.659,104.951 C298.86,106.588 303.64,107.163 307.92,108.705 C310.32,109.56 317.01,114.038 319.33,113.658 C322.63,113.125 325.26,107.051 328.02,104.834 C331.82,101.797 336.07,100.953 340.78,99.786 C353.65,96.586 364.01,86.902 370.04,75.212 C370.05,75.205 370.05,75.198 370.05,75.198 C371.7,72.001 373.02,68.661 373.99,65.269 C379.68,45.203 367.17,22.155 350.57,11.41 C332.93,-0.009 309.09,-3.857 289.685,5.71 C279.234,10.851 270.481,18.204 260.389,23.874 C249.647,29.9 238.038,34.305 226.415,38.346 C216.02,41.956 205.601,45.36 194.815,47.934 C186.213,49.989 175.942,52.554 167.231,52.96 C161.091,53.261 155.118,54.495 148.827,54.748 C144.864,54.915 137.355,51.961 133.765,53.736 C131.011,55.11 131,57.218 131.547,59.666 Z" id="Fill-18" fill="#00CEC9" fill-rule="nonzero" mask="url(#mask-4)"></path>
                </g>
            </g>
            <path d="M215.527,88.187 C211.178,80.427 207.064,73.413 199.315,67.809 C187.284,59.106 73.172,17.396 54.207,9.621 C45.998,6.255 34.015,-0.905 24.924,0.629 C19.571,1.533 12.646,6.713 15.633,12.477 C19.211,19.383 55.75,35.906 64.502,40.928 C86.526,53.568 109.251,65.282 130.782,78.811 C148.157,89.728 166.507,98.487 184.335,108.49 C192.789,113.234 200.878,118.35 209.042,123.367 C213.102,125.861 223.948,132.406 228.831,129.835 C235.604,126.241 239.704,117.488 234.544,111.654 C227.556,103.755 220.862,97.706 215.527,88.187" id="Fill-20" fill="#7B7C79" fill-rule="nonzero"></path>
            <path d="M339.906,239.357 C328.29,228.097 306.285,203.197 320.046,187.018 C330.15,175.144 340.713,181.249 352.872,184.109 C366.245,187.268 379.135,191.757 390.89,198.383 C396.73,201.676 400.64,205.74 402.86,211.959 C406.5,222.167 405.73,233.888 399.47,243.288 C386.828,262.219 352.84,251.871 339.906,239.357 Z M211.458,119.445 C210.8,120.2 210.085,120.9 209.411,121.584 C207.357,123.702 205.779,125.661 207.712,128.548 C209.94,131.886 217.916,133.059 221.271,135.183 C226.594,138.542 231.158,142.587 236.336,145.906 C243.678,150.607 251.305,157.954 257.736,164.022 C265.803,171.625 273.138,179.784 280.347,188.089 C288.411,197.386 296.279,206.986 302.581,217.573 C308.505,227.517 312.422,238.249 318.914,247.925 C330.963,265.887 353.562,274.44 374.537,273.333 C392.16,272.417 411.83,261.387 419.47,244.65 C420.4,242.632 421.15,240.516 421.7,238.327 C425.69,222.358 422.3,203.549 410.12,191.849 C406.62,188.484 403.35,185.637 401.58,181.118 C400.28,177.819 401.03,171.238 398.44,169.121 C396.61,167.64 388.584,168.183 386.082,167.737 C381.601,166.942 377.177,165.052 372.712,164.371 C367.459,163.562 367.479,165.784 363.107,166.23 C358.913,166.666 352.768,163.637 348.98,162.121 C337.244,157.439 325,152.322 314.498,145.658 C303.824,138.898 292.14,136.258 281.447,130.405 C275.013,126.874 268.608,123.313 262.161,119.825 C256.096,116.522 249.99,113.292 243.801,110.192 C237.409,106.982 233.326,101.884 225.727,105.214 C219.674,107.871 215.663,114.656 211.458,119.445 Z" id="Fill-21" fill="#00CEC9" fill-rule="nonzero"></path>
            <path d="M180.329,78.02 C178.014,80.423 178.086,84.247 180.489,86.562 C182.892,88.876 186.716,88.805 189.031,86.402 C191.346,83.999 191.274,80.174 188.871,77.86 C186.468,75.545 182.644,75.617 180.329,78.02" id="Fill-22" fill="#03B2AE" fill-rule="nonzero"></path>
            <path d="M225.547,59.666 C225.812,60.876 226.208,62.17 226.483,63.501 C227.736,69.745 227.819,77.626 231.749,82.954 C236.669,89.63 242.756,87.244 249.896,87.653 C256.807,88.053 263.707,88.288 270.614,88.459 C277.943,88.643 285.269,88.742 292.604,88.905 C304.794,89.155 316.244,92.693 328.861,92.149 C341.293,91.609 354.452,93.285 366.956,95.074 C370.997,95.656 377.837,96.085 381.257,98.551 C384.821,101.128 383.699,103.036 388.659,104.951 C392.86,106.588 397.64,107.163 401.92,108.705 C404.32,109.56 411.01,114.038 413.33,113.658 C416.63,113.125 419.26,107.051 422.02,104.834 C425.82,101.797 430.07,100.953 434.78,99.786 C447.65,96.586 458.01,86.902 464.04,75.212 C463.21,76.307 462.39,77.301 461.64,78.173 C454.68,86.2 446.71,91.944 436.7,95.112 C432.09,96.556 427.46,95.313 422.9,95.813 C417.49,96.4 415.71,100.693 410.62,101.81 C406.46,102.724 400.11,99.656 396.27,98.463 C393.95,97.734 391.99,97.514 390.04,96.192 C387.664,94.593 387.266,92.035 385.173,90.552 C378.633,85.922 366.254,86.204 358.279,85.453 C349.416,84.618 339.996,83.794 331.207,82.286 C311.297,78.879 289.255,78.312 269.157,78.188 C259.944,78.139 250.912,78.908 242.452,76.33 C237.32,74.768 233.566,72.723 230.123,68.214 C228.314,65.853 227.506,62.031 225.547,59.666" id="Fill-24" fill="#03B2AE" fill-rule="nonzero"></path>
            <path d="M209.411,121.584 C207.357,123.702 205.779,125.661 207.712,128.548 C209.94,131.886 217.916,133.059 221.271,135.183 C226.594,138.542 231.158,142.587 236.336,145.906 C243.678,150.607 251.305,157.954 257.736,164.022 C265.803,171.625 273.138,179.784 280.347,188.089 C288.411,197.386 296.279,206.986 302.581,217.573 C308.505,227.517 312.422,238.249 318.914,247.925 C330.963,265.887 353.562,274.44 374.537,273.333 C392.16,272.417 411.83,261.387 419.47,244.65 C415.55,249.633 410.77,254.046 406.85,256.434 C398.32,261.639 386.509,264.605 376.594,264.483 C361.627,264.32 340.949,259.919 330.621,248.035 C319.746,235.525 313.364,222.503 306.243,207.45 C301.042,196.449 294.086,187.125 286.157,177.79 C282.19,173.126 277.151,169.297 273.184,165.069 C269.29,160.912 266.552,155.889 262.44,151.942 C254.552,144.358 243.311,138.665 233.88,133.046 C228.2,129.665 219.876,129.728 215.238,124.405 C215.399,124.588 211.715,124.421 211.203,124.18 C210.288,123.776 209.824,122.656 209.411,121.584" id="Fill-25" fill="#03B2AE" fill-rule="nonzero"></path>
        </g>
    </g>
</svg>